<?xml version="1.0" encoding="utf-8"?>
<!-- Generator: Adobe Illustrator 16.0.0, SVG Export Plug-In . SVG Version: 6.00 Build 0)  -->
<!DOCTYPE svg PUBLIC "-//W3C//DTD SVG 1.1//EN" "http://www.w3.org/Graphics/SVG/1.1/DTD/svg11.dtd">
<svg version="1.1" xmlns="http://www.w3.org/2000/svg" xmlns:xlink="http://www.w3.org/1999/xlink" x="0px" y="0px" width="300px"
	 height="50px" viewBox="0 0 300 50" enable-background="new 0 0 300 50" xml:space="preserve">
<g id="Layer_1">
</g>
<g id="KEMP_AD_Standard">
	<rect id="_x33_00x50" display="none" fill="#FCB316" width="300" height="50"/>
	<rect id="_x32_64x44_1_" x="18" y="3" display="none" fill="#447268" width="264" height="44"/>
	<rect id="_x32_40x40_1_" x="30" y="5" display="none" fill="#ED1C24" width="240" height="40"/>
	<g id="_x32_40x40" display="none">
		<g display="inline">
			<g>
				<path d="M132.991,20.431l5.903-14.881h2.092l5.812,14.881h-2.278l-1.617-4.112h-6.312l-1.642,4.112H132.991z M137.195,14.74
					h5.091l-2.542-6.425L137.195,14.74z"/>
				<path d="M149.608,20.431V5.55h4.052c1.166,0,2.066,0.095,2.699,0.287c0.634,0.191,1.152,0.527,1.554,1.01
					c0.53,0.637,0.795,1.505,0.795,2.604c0,1.582-0.537,2.822-1.608,3.72c-1.074,0.899-2.562,1.348-4.465,1.348h-0.936v5.912
					H149.608z M151.699,12.92h0.856c1.252,0,2.221-0.288,2.904-0.864c0.684-0.577,1.025-1.395,1.025-2.454
					c0-0.885-0.27-1.518-0.81-1.9s-1.433-0.573-2.679-0.573h-1.298V12.92z"/>
				<path d="M161.65,20.431V5.55h4.051c1.166,0,2.066,0.095,2.7,0.287c0.634,0.191,1.151,0.527,1.553,1.01
					c0.531,0.637,0.795,1.505,0.795,2.604c0,1.582-0.537,2.822-1.608,3.72c-1.073,0.899-2.562,1.348-4.465,1.348h-0.936v5.912
					H161.65z M163.74,12.92h0.855c1.254,0,2.222-0.288,2.905-0.864c0.685-0.577,1.025-1.395,1.025-2.454
					c0-0.885-0.27-1.518-0.809-1.9c-0.541-0.382-1.433-0.573-2.68-0.573h-1.298V12.92z"/>
				<path d="M173.69,20.431V5.55h2.112v13.303h6.696v1.578H173.69z"/>
				<path d="M185.319,20.431V5.55h2.112v14.881H185.319z"/>
				<path d="M203.102,19.667c-1.468,0.758-3.069,1.136-4.806,1.136c-2.312,0-4.1-0.677-5.359-2.032
					c-1.26-1.354-1.891-3.278-1.891-5.771c0-2.487,0.643-4.413,1.926-5.777c1.285-1.363,3.096-2.045,5.436-2.045
					c1.327,0,2.887,0.218,4.675,0.654v1.98c-2.038-0.704-3.609-1.056-4.715-1.056c-1.616,0-2.866,0.546-3.751,1.639
					c-0.886,1.092-1.327,2.634-1.327,4.625c0,1.904,0.472,3.402,1.418,4.495c0.943,1.093,2.238,1.639,3.88,1.639
					c1.401,0,2.907-0.433,4.515-1.297V19.667z"/>
				<path d="M205.08,20.431l5.902-14.881h2.091l5.812,14.881h-2.278l-1.617-4.112h-6.311l-1.643,4.112H205.08z M209.283,14.74h5.091
					l-2.543-6.425L209.283,14.74z"/>
				<path d="M225.235,20.431V7.128h-5.28V5.55h12.671v1.579h-5.28v13.303H225.235z"/>
				<path d="M235.366,20.431V5.55h2.11v14.881H235.366z"/>
				<path d="M248.05,20.804c-2.111,0-3.799-0.709-5.063-2.127c-1.263-1.417-1.895-3.313-1.895-5.686
					c0-2.373,0.632-4.269,1.895-5.687c1.265-1.417,2.952-2.125,5.063-2.125c2.112,0,3.801,0.708,5.063,2.125
					c1.264,1.418,1.895,3.314,1.895,5.687c0,2.373-0.631,4.268-1.895,5.686C251.851,20.095,250.162,20.804,248.05,20.804z
					 M248.05,19.224c1.482,0,2.639-0.551,3.471-1.654c0.83-1.103,1.246-2.635,1.246-4.6c0-1.951-0.416-3.475-1.246-4.57
					c-0.832-1.097-1.988-1.644-3.471-1.644c-1.481,0-2.637,0.547-3.47,1.644c-0.829,1.095-1.246,2.619-1.246,4.57
					c0,1.964,0.417,3.497,1.246,4.6C245.413,18.673,246.568,19.224,248.05,19.224z"/>
				<path d="M258.623,20.431V5.55h2.072l7.491,11.492V5.55h1.81v14.881h-2.061l-7.501-11.489v11.489H258.623z"/>
			</g>
			<g>
				<path d="M133.166,44.345V29.463h4.946c1.475,0,2.667,0.164,3.575,0.492c0.908,0.33,1.694,0.886,2.358,1.669
					c1.052,1.247,1.579,2.89,1.579,4.929c0,2.298-0.617,4.162-1.85,5.588c-0.671,0.786-1.447,1.349-2.329,1.691
					c-0.882,0.341-1.982,0.513-3.303,0.513H133.166z M135.277,42.766h2.705c1.93,0,3.297-0.519,4.103-1.559
					c0.865-1.106,1.296-2.591,1.296-4.454c0-1.75-0.425-3.124-1.276-4.122c-0.517-0.61-1.133-1.028-1.851-1.253
					c-0.717-0.225-1.796-0.336-3.237-0.336h-1.74V42.766z"/>
				<path d="M149.249,44.345V29.463h8.316v1.579h-6.204v4.775h5.198v1.56h-5.198v5.389h6.637v1.579H149.249z"/>
				<path d="M161.068,44.345V29.463h2.112v13.303h6.696v1.579H161.068z"/>
				<path d="M172.697,44.345V29.463h2.112v14.882H172.697z"/>
				<path d="M183.361,44.345l-5.62-14.882h2.105l4.604,12.184l4.451-12.184h1.851l-5.398,14.882H183.361z"/>
				<path d="M193.423,44.345V29.463h8.313v1.579h-6.202v4.775h5.198v1.56h-5.198v5.389h6.636v1.579H193.423z"/>
				<path d="M205.242,44.345V29.463h4.506c1.428,0,2.521,0.314,3.283,0.945c0.761,0.629,1.141,1.545,1.141,2.744
					c0,0.946-0.263,1.788-0.79,2.525c-0.525,0.736-1.266,1.303-2.216,1.699l4.967,6.968h-2.594l-4.239-6.296h-1.966v6.296H205.242z
					 M207.334,36.471h0.686c1.305,0,2.292-0.264,2.974-0.793c0.678-0.53,1.016-1.305,1.016-2.324c0-1.541-1.113-2.312-3.345-2.312
					h-1.33V36.471z"/>
				<path d="M222.14,44.345v-6.214l-4.965-8.668h2.408l3.868,6.727l4.16-6.727h1.959l-5.318,8.628v6.254H222.14z"/>
			</g>
		</g>
		<g display="inline">
			<g>
				<g>
					<path d="M123.622,44.437c-0.395,0-0.717-0.32-0.717-0.714V6.266c0-0.395,0.322-0.716,0.717-0.716l0,0
						c0.396,0,0.715,0.322,0.715,0.716v37.457C124.337,44.116,124.018,44.437,123.622,44.437L123.622,44.437z"/>
				</g>
			</g>
		</g>
		<g display="inline">
			<g>
				<g>
					<path d="M87.648,28.587c-0.07-2.722-0.141-5.903-0.106-9.614h-0.104c-0.743,3.146-1.732,6.715-2.51,9.33l-2.37,8.307h-4.982
						l-2.014-8.271c-0.602-2.581-1.344-6.115-1.875-9.366h-0.071c-0.141,3.358-0.283,6.892-0.387,9.614l-0.354,8.517h-5.869
						l1.45-23.821h8.59l1.589,6.398c0.637,2.65,1.344,5.832,1.839,8.731h0.14c0.672-2.899,1.45-6.257,2.158-8.768l1.765-6.361h8.413
						l1.203,23.821h-6.222L87.648,28.587z"/>
					<path d="M96.127,13.601c1.732-0.283,4.242-0.498,7.883-0.498c3.428,0,5.867,0.603,7.527,1.875
						c1.625,1.202,2.721,3.322,2.721,5.761c0,2.405-0.813,4.524-2.297,5.867c-1.943,1.732-4.736,2.476-7.951,2.476
						c-0.602,0-1.167-0.035-1.556-0.071v8.093h-6.327V13.601z M102.455,24.133c0.354,0.035,0.777,0.069,1.449,0.069
						c2.509,0,4.064-1.271,4.064-3.319c0-1.77-1.203-2.97-3.606-2.97c-0.954,0-1.589,0.07-1.908,0.14V24.133z"/>
				</g>
				<path d="M56.334,31.874v-4.383h8.554v-5.161h-8.554v-3.853h9.084v-5.196H51.897c0.488,0.761,0.726,1.653,0.669,2.573
					c-0.073,1.144-0.585,2.19-1.44,2.943l-1.189,1.056v10.628l1.583,1.794c0.744,0.845,1.172,1.851,1.207,2.832
					c0.024,0.715-0.157,1.396-0.518,1.996h13.702v-5.229H56.334z"/>
				<g>
					<path d="M35.87,30.675c-1.185,0-2.314-0.51-3.098-1.397c-1.504-1.707-1.342-4.322,0.365-5.829l3.752-3.311v-4.407
						c0-1.923-1.542-3.477-3.444-3.477c-1.902,0-3.444,1.554-3.444,3.477v18.667c0,1.921,1.542,3.478,3.444,3.478
						c1.902,0,3.444-1.557,3.444-3.478v-3.854C36.561,30.631,36.217,30.675,35.87,30.675z"/>
					<g>
						<g>
							<path d="M50.517,33.159l-7.727-8.754l7.449-6.607c1.22-1.075,1.337-2.94,0.26-4.162c-1.079-1.22-2.941-1.337-4.163-0.258
								L33.918,24.333c-1.221,1.079-1.339,2.942-0.262,4.161c1.079,1.224,2.94,1.341,4.164,0.264l1.115-1.018l7.726,8.758
								c1.079,1.221,2.659,1.62,3.88,0.541C51.761,35.962,51.595,34.383,50.517,33.159z"/>
						</g>
						<path fill="#FED204" d="M49.529,34.176l-8.655-9.801l-0.083-0.097l0.011-0.01c3.729-3.291,8.502-7.542,8.502-7.542
							c0.633-0.559,0.693-1.526,0.134-2.16c-0.56-0.634-1.526-0.693-2.16-0.134L34.844,25.404c-0.633,0.559-0.674,1.525-0.114,2.158
							c0.561,0.634,1.517,0.694,2.14,0.135l2.164-1.979l0.039,0.042l8.74,9.894c0.95,0.925,1.536,0.496,1.536,0.496
							c0.165-0.068,0.524-0.389,0.551-0.566C50.2,34.943,49.529,34.176,49.529,34.176z"/>
					</g>
				</g>
			</g>
		</g>
	</g>
	<g id="_x32_64x44">
		<g>
			<g>
				<path d="M131.29,19.993l6.493-16.369h2.302l6.393,16.369h-2.506l-1.778-4.522h-6.943l-1.806,4.522H131.29z M135.915,13.732
					h5.601l-2.797-7.067L135.915,13.732z"/>
				<path d="M149.569,19.993V3.624h4.457c1.283,0,2.273,0.104,2.97,0.315c0.697,0.21,1.268,0.58,1.709,1.111
					c0.583,0.7,0.874,1.656,0.874,2.864c0,1.74-0.591,3.104-1.769,4.093c-1.182,0.988-2.818,1.482-4.912,1.482h-1.028v6.503H149.569
					z M151.87,11.731h0.941c1.378,0,2.443-0.316,3.195-0.95c0.752-0.635,1.128-1.534,1.128-2.7c0-0.974-0.297-1.67-0.891-2.09
					c-0.594-0.421-1.576-0.631-2.946-0.631h-1.428V11.731z"/>
				<path d="M162.816,19.993V3.624h4.455c1.283,0,2.273,0.104,2.971,0.315c0.697,0.21,1.267,0.58,1.708,1.111
					c0.584,0.7,0.874,1.656,0.874,2.864c0,1.74-0.591,3.104-1.769,4.093c-1.181,0.988-2.818,1.482-4.912,1.482h-1.028v6.503H162.816
					z M165.115,11.731h0.94c1.38,0,2.444-0.316,3.196-0.95c0.753-0.635,1.128-1.534,1.128-2.7c0-0.974-0.297-1.67-0.89-2.09
					c-0.595-0.421-1.576-0.631-2.947-0.631h-1.428V11.731z"/>
				<path d="M176.061,19.993V3.624h2.323v14.634h7.366v1.735H176.061z"/>
				<path d="M188.852,19.993V3.624h2.324v16.369H188.852z"/>
				<path d="M208.412,19.153c-1.614,0.834-3.376,1.25-5.286,1.25c-2.543,0-4.51-0.745-5.896-2.235
					c-1.386-1.488-2.079-3.605-2.079-6.348c0-2.735,0.707-4.854,2.118-6.355c1.414-1.499,3.405-2.25,5.979-2.25
					c1.459,0,3.175,0.24,5.142,0.72v2.179c-2.241-0.775-3.97-1.162-5.187-1.162c-1.777,0-3.152,0.601-4.126,1.803
					s-1.46,2.897-1.46,5.088c0,2.095,0.52,3.742,1.561,4.944c1.037,1.202,2.462,1.803,4.268,1.803c1.541,0,3.198-0.476,4.966-1.427
					V19.153z"/>
				<path d="M210.589,19.993l6.492-16.369h2.3l6.393,16.369h-2.506l-1.778-4.522h-6.942l-1.807,4.522H210.589z M215.212,13.732
					h5.601l-2.798-7.067L215.212,13.732z"/>
				<path d="M232.76,19.993V5.36h-5.809V3.624h13.938V5.36h-5.809v14.633H232.76z"/>
				<path d="M243.903,19.993V3.624h2.321v16.369H243.903z"/>
				<path d="M257.855,20.403c-2.322,0-4.179-0.78-5.57-2.34c-1.389-1.56-2.084-3.645-2.084-6.255c0-2.609,0.695-4.695,2.084-6.256
					c1.392-1.559,3.248-2.338,5.57-2.338c2.323,0,4.181,0.779,5.569,2.338c1.391,1.561,2.084,3.646,2.084,6.256
					c0,2.61-0.693,4.695-2.084,6.255C262.036,19.623,260.179,20.403,257.855,20.403z M257.855,18.666
					c1.631,0,2.902-0.606,3.817-1.819c0.913-1.213,1.371-2.899,1.371-5.06c0-2.146-0.458-3.822-1.371-5.027
					c-0.915-1.207-2.187-1.809-3.817-1.809c-1.63,0-2.9,0.602-3.816,1.809c-0.912,1.205-1.371,2.882-1.371,5.027
					c0,2.16,0.459,3.847,1.371,5.06C254.955,18.06,256.226,18.666,257.855,18.666z"/>
				<path d="M269.486,19.993V3.624h2.279l8.24,12.642V3.624h1.99v16.369h-2.267l-8.251-12.638v12.638H269.486z"/>
			</g>
			<g>
				<path d="M131.483,46.299v-16.37h5.44c1.622,0,2.934,0.18,3.933,0.541c0.999,0.363,1.863,0.975,2.594,1.836
					c1.156,1.372,1.736,3.179,1.736,5.422c0,2.527-0.679,4.578-2.034,6.146c-0.738,0.864-1.592,1.483-2.562,1.86
					c-0.971,0.375-2.181,0.564-3.634,0.564H131.483z M133.805,44.562h2.976c2.124,0,3.627-0.57,4.514-1.715
					c0.951-1.217,1.426-2.85,1.426-4.899c0-1.925-0.468-3.437-1.404-4.534c-0.568-0.671-1.246-1.131-2.035-1.378
					s-1.977-0.37-3.562-0.37h-1.914V44.562z"/>
				<path d="M149.174,46.299v-16.37h9.147v1.736h-6.824v5.253h5.718v1.716h-5.718v5.928h7.301v1.737H149.174z"/>
				<path d="M162.176,46.299v-16.37h2.323v14.633h7.366v1.737H162.176z"/>
				<path d="M174.968,46.299v-16.37h2.323v16.37H174.968z"/>
				<path d="M186.698,46.299l-6.183-16.37h2.316l5.063,13.401l4.896-13.401h2.036l-5.938,16.37H186.698z"/>
				<path d="M197.766,46.299v-16.37h9.145v1.736h-6.822v5.253h5.719v1.716h-5.719v5.928h7.3v1.737H197.766z"/>
				<path d="M210.767,46.299v-16.37h4.957c1.57,0,2.773,0.346,3.611,1.039c0.837,0.692,1.255,1.7,1.255,3.019
					c0,1.041-0.289,1.968-0.869,2.778c-0.578,0.81-1.393,1.433-2.438,1.869l5.464,7.665h-2.854l-4.663-6.926h-2.162v6.926H210.767z
					 M213.068,37.637h0.754c1.435,0,2.521-0.29,3.271-0.872c0.746-0.583,1.117-1.436,1.117-2.557c0-1.695-1.225-2.543-3.679-2.543
					h-1.463V37.637z"/>
				<path d="M229.354,46.299v-6.836l-5.462-9.534h2.649l4.255,7.398l4.576-7.398h2.155l-5.851,9.49v6.88H229.354z"/>
			</g>
		</g>
		<g>
			<g>
				<g>
					<path d="M120.984,46.399c-0.434,0-0.788-0.353-0.788-0.785V4.411c0-0.434,0.354-0.788,0.788-0.788l0,0
						c0.436,0,0.787,0.354,0.787,0.788v41.203C121.771,46.047,121.42,46.399,120.984,46.399L120.984,46.399z"/>
				</g>
			</g>
		</g>
		<g>
			<g>
				<g>
					<path d="M81.413,28.965c-0.076-2.994-0.154-6.494-0.116-10.576h-0.115c-0.817,3.46-1.905,7.388-2.761,10.264l-2.607,9.137
						h-5.479l-2.216-9.097c-0.662-2.839-1.479-6.728-2.062-10.304h-0.078c-0.155,3.694-0.312,7.582-0.426,10.576l-0.391,9.368
						h-6.455l1.595-26.203h9.449l1.748,7.037c0.701,2.916,1.479,6.415,2.023,9.604h0.153c0.739-3.189,1.595-6.883,2.374-9.645
						l1.941-6.997h9.255l1.322,26.203h-6.844L81.413,28.965z"/>
					<path d="M90.741,12.48c1.904-0.312,4.666-0.548,8.671-0.548c3.771,0,6.454,0.664,8.28,2.063
						c1.787,1.321,2.993,3.654,2.993,6.337c0,2.646-0.895,4.978-2.527,6.454c-2.138,1.906-5.209,2.724-8.746,2.724
						c-0.662,0-1.283-0.039-1.712-0.079v8.902h-6.959V12.48z M97.7,24.065c0.39,0.038,0.855,0.076,1.595,0.076
						c2.76,0,4.471-1.398,4.471-3.651c0-1.946-1.323-3.267-3.967-3.267c-1.049,0-1.747,0.077-2.099,0.154V24.065z"/>
				</g>
				<path d="M46.968,32.581V27.76h9.409v-5.677h-9.409v-4.238h9.993V12.13H42.088c0.536,0.837,0.799,1.817,0.736,2.83
					c-0.08,1.258-0.645,2.408-1.584,3.236l-1.308,1.162v11.69l1.741,1.974c0.819,0.929,1.29,2.035,1.328,3.115
					c0.026,0.786-0.173,1.535-0.569,2.195h15.072v-5.752H46.968z"/>
				<g>
					<path d="M24.458,31.262c-1.304,0-2.546-0.561-3.408-1.537c-1.655-1.878-1.476-4.755,0.401-6.412l4.128-3.642v-4.848
						c0-2.115-1.696-3.825-3.788-3.825c-2.093,0-3.788,1.71-3.788,3.825v20.534c0,2.113,1.695,3.825,3.788,3.825
						c2.092,0,3.788-1.712,3.788-3.825v-4.24C25.217,31.213,24.839,31.262,24.458,31.262z"/>
					<g>
						<g>
							<path d="M40.569,33.994l-8.499-9.63l8.193-7.268c1.343-1.184,1.471-3.234,0.286-4.578c-1.187-1.342-3.234-1.471-4.579-0.284
								l-13.66,12.052c-1.343,1.187-1.473,3.236-0.287,4.576c1.186,1.347,3.234,1.476,4.579,0.29l1.227-1.119l8.498,9.634
								c1.188,1.343,2.925,1.782,4.269,0.595C41.938,37.077,41.755,35.34,40.569,33.994z"/>
						</g>
						<path fill="#FED204" d="M39.482,35.112l-9.52-10.781l-0.092-0.106l0.012-0.011c4.102-3.619,9.353-8.296,9.353-8.296
							c0.697-0.615,0.763-1.679,0.148-2.376c-0.616-0.697-1.679-0.762-2.377-0.147L23.329,25.464
							c-0.697,0.614-0.741,1.678-0.126,2.374c0.616,0.697,1.669,0.764,2.354,0.148l2.38-2.178l0.042,0.047l9.614,10.884
							c1.045,1.017,1.689,0.545,1.689,0.545c0.182-0.075,0.577-0.427,0.606-0.623C40.221,35.957,39.482,35.112,39.482,35.112z"/>
					</g>
				</g>
			</g>
		</g>
	</g>
</g>
</svg>
